<?xml version="1.0" encoding="utf-8"?>
<svg version="1.1" xmlns:xlink="http://www.w3.org/1999/xlink" width="13px" height="13px" xmlns="http://www.w3.org/2000/svg">
  <g transform="matrix(1 0 0 1 -16 -22 )">
    <path d="M 2.4375 6.5  L 4.0625 6.5  L 4.0625 10.8333333333333  L 2.4375 10.8333333333333  L 2.4375 6.5  Z M 4.875 2.16666666666667  L 6.5 2.16666666666667  L 6.5 10.8333333333333  L 4.875 10.8333333333333  L 4.875 2.16666666666667  Z M 1 12  L 13 12  L 13 13  L 0 13  L 0 0  L 1 0  L 1 12  Z M 7.3125 4.33333333333333  L 8.9375 4.33333333333333  L 8.9375 10.8333333333333  L 7.3125 10.8333333333333  L 7.3125 4.33333333333333  Z M 9.75 1.08333333333333  L 11.375 1.08333333333333  L 11.375 10.8333333333333  L 9.75 10.8333333333333  L 9.75 1.08333333333333  Z " fill-rule="nonzero" fill="#000000" stroke="none" transform="matrix(1 0 0 1 16 22 )" />
  </g>
</svg>