<?xml version="1.0" encoding="utf-8"?>
<svg version="1.1" xmlns:xlink="http://www.w3.org/1999/xlink" width="13px" height="10px" xmlns="http://www.w3.org/2000/svg">
  <g transform="matrix(1 0 0 1 0 -5 )">
    <path d="M 12.0025111607143 9.0234375  C 12.0484561011905 8.97845643939394  12.0714285714286 8.92518939393939  12.0714285714286 8.86363636363636  L 12.0714285714286 3.40909090909091  C 11.9166666666667 3.57954545454545  11.7498139880952 3.73579545454545  11.5708705357143 3.87784090909091  C 10.2747395833333 4.8532196969697  9.24460565476191 5.65340909090909  8.48046875 6.27840909090909  C 8.23381696428571 6.48200757575757  8.03311011904762 6.640625  7.87834821428571 6.75426136363636  C 7.72358630952381 6.86789772727273  7.51441592261905 6.9827178030303  7.25083705357143 7.09872159090909  C 6.98725818452381 7.21472537878788  6.73939732142857 7.27272727272727  6.50725446428571 7.27272727272727  L 6.5 7.27272727272727  L 6.49274553571429 7.27272727272727  C 6.26060267857143 7.27272727272727  6.01274181547619 7.21472537878788  5.74916294642857 7.09872159090909  C 5.48558407738095 6.9827178030303  5.27641369047619 6.86789772727273  5.12165178571429 6.75426136363636  C 4.96688988095238 6.640625  4.76618303571429 6.48200757575757  4.51953125 6.27840909090909  C 3.7553943452381 5.65340909090909  2.72526041666667 4.8532196969697  1.42912946428571 3.87784090909091  C 1.25018601190476 3.73579545454545  1.08333333333333 3.57954545454545  0.928571428571428 3.40909090909091  L 0.928571428571428 8.86363636363636  C 0.928571428571428 8.92518939393939  0.951543898809524 8.97845643939394  0.997488839285714 9.0234375  C 1.0434337797619 9.06841856060606  1.09784226190476 9.09090909090909  1.16071428571429 9  L 11.8392857142857 9  C 11.9021577380952 9.09090909090909  11.9565662202381 9.06841856060606  12.0025111607143 9.0234375  Z M 11.7340959821429 2.33309659090909  C 11.958984375 1.98982007575757  12.0714285714286 1.67850378787879  12.0714285714286 1.39914772727273  L 12.0714285714286 1.32102272727273  L 12.0714285714286 1.22514204545455  C 12.0714285714286 1.22514204545455  12.0702194940476 1.19436553030303  12.0678013392857 1.1328125  C 12.0653831845238 1.07125946969697  12.0581287202381 1.04166666666667  12.0460379464286 1.04403409090909  C 12.033947172619 1.04640151515151  12.0206473214286 1.0250946969697  12.0061383928571 0.980113636363636  C 11.9916294642857 0.935132575757575  11.9698660714286 0.917376893939393  11.9408482142857 0.926846590909091  C 11.9118303571429 0.936316287878788  11.8779761904762 0.930397727272727  11.8392857142857 1  L 1.16071428571429 1  C 1.09784226190476 0.909090909090909  1.0434337797619 0.931581439393938  0.997488839285714 0.9765625  C 0.951543898809524 1.02154356060606  0.928571428571428 1.07481060606061  0.928571428571428 1.13636363636364  C 0.928571428571428 1.93181818181818  1.28404017857143 2.60416666666667  1.99497767857143 3.15340909090909  C 2.92838541666667 3.87310606060606  3.89806547619048 4.62357954545455  4.90401785714286 5.40482954545455  C 4.93303571428571 5.42850378787879  5.01767113095238 5.4983428030303  5.15792410714286 5.61434659090909  C 5.29817708333333 5.73035037878788  5.40941220238095 5.81912878787879  5.49162946428571 5.88068181818182  C 5.57384672619048 5.94223484848485  5.68145461309524 6.01680871212121  5.814453125 6.10440340909091  C 5.94745163690476 6.19199810606061  6.06956845238095 6.25710227272727  6.18080357142857 6.29971590909091  C 6.29203869047619 6.34232954545455  6.3960193452381 6.36363636363636  6.49274553571429 6.36363636363636  L 6.5 6.36363636363636  L 6.50725446428571 6.36363636363636  C 6.60398065476191 6.36363636363636  6.70796130952381 6.34232954545455  6.81919642857143 6.29971590909091  C 6.93043154761905 6.25710227272727  7.05254836309524 6.19199810606061  7.185546875 6.10440340909091  C 7.31854538690476 6.01680871212121  7.42615327380952 5.94223484848485  7.50837053571429 5.88068181818182  C 7.59058779761905 5.81912878787879  7.70182291666667 5.73035037878788  7.84207589285714 5.61434659090909  C 7.98232886904762 5.4983428030303  8.06696428571429 5.42850378787879  8.09598214285714 5.40482954545455  C 9.10193452380952 4.62357954545455  10.0716145833333 3.87310606060606  11.0050223214286 3.15340909090909  C 11.2661830357143 2.94981060606061  11.5092075892857 2.67637310606061  11.7340959821429 2.33309659090909  Z M 12.6590401785714 0.333806818181818  C 12.8863467261905 0.556344696969696  13 0.823863636363636  13 1.13636363636364  L 13 8.86363636363636  C 13 9.17613636363636  12.8863467261905 9.4436553030303  12.6590401785714 9.66619318181818  C 12.4317336309524 9.88873106060606  12.1584821428571 10  11.8392857142857 10  L 1.16071428571429 10  C 0.841517857142857 10  0.568266369047619 9.88873106060606  0.340959821428571 9.66619318181818  C 0.113653273809524 9.4436553030303  0 9.17613636363636  0 8.86363636363636  L 0 1.13636363636364  C 0 0.823863636363636  0.113653273809524 0.556344696969696  0.340959821428571 0.333806818181818  C 0.568266369047619 0.111268939393938  0.841517857142857 0  1.16071428571429 0  L 11.8392857142857 0  C 12.1584821428571 0  12.4317336309524 0.111268939393938  12.6590401785714 0.333806818181818  Z " fill-rule="nonzero" fill="#000000" stroke="none" transform="matrix(1 0 0 1 0 5 )" />
  </g>
</svg>